<svg width="7" height="4" viewBox="0 0 7 4" fill="none" xmlns="http://www.w3.org/2000/svg">
<path d="M3.20464 3.99865C3.09769 3.99891 2.99405 3.95243 2.9117 3.86729L0.165354 1.01162C0.071879 0.914678 0.0130961 0.775372 0.00193686 0.624349C-0.00922233 0.473327 0.0281563 0.322958 0.10585 0.206323C0.183543 0.089688 0.295187 0.0163408 0.416222 0.00241676C0.537256 -0.0115073 0.657766 0.0351323 0.751241 0.132076L3.20464 2.69075L5.65805 0.223457C5.70486 0.176016 5.75874 0.140587 5.81657 0.119209C5.87439 0.0978302 5.93504 0.090923 5.99501 0.0988842C6.05499 0.106845 6.11311 0.129518 6.16604 0.165598C6.21897 0.201679 6.26566 0.250457 6.30344 0.309127C6.34535 0.367852 6.3771 0.436746 6.39669 0.511492C6.41628 0.586238 6.42328 0.665227 6.41726 0.743508C6.41125 0.821789 6.39234 0.897677 6.36173 0.966417C6.33111 1.03516 6.28945 1.09527 6.23935 1.14298L3.49301 3.90156C3.40829 3.97324 3.30676 4.00743 3.20464 3.99865Z" fill="#4F4F4F"/>
</svg>
