<svg width="16" height="16" viewBox="0 0 16 16" fill="none" xmlns="http://www.w3.org/2000/svg">
<path d="M15.2927 3.5122C15.2927 3.70336 15.2203 3.88787 15.0893 4.03073C14.9583 4.17359 14.7778 4.26485 14.582 4.28722L14.4878 4.29268H13.8077L12.8169 14.0644C12.7629 14.5946 12.5075 15.0864 12.1004 15.4442C11.6932 15.8019 11.1634 16.0001 10.6139 16H4.67876C4.12931 16.0001 3.59947 15.8019 3.19231 15.4442C2.78514 15.0864 2.52975 14.5946 2.47581 14.0644L1.485 4.29268H0.804878C0.591411 4.29268 0.386687 4.21045 0.235743 4.06408C0.0847994 3.91771 0 3.71919 0 3.5122C0 3.3052 0.0847994 3.10668 0.235743 2.96031C0.386687 2.81394 0.591411 2.73171 0.804878 2.73171H4.82927C4.82927 2.37297 4.90213 2.01775 5.0437 1.68633C5.18528 1.3549 5.39278 1.05376 5.65437 0.800099C5.91596 0.546436 6.22651 0.34522 6.56829 0.207939C6.91008 0.0706577 7.2764 0 7.64634 0C8.01628 0 8.38261 0.0706577 8.72439 0.207939C9.06617 0.34522 9.37672 0.546436 9.63831 0.800099C9.8999 1.05376 10.1074 1.3549 10.249 1.68633C10.3905 2.01775 10.4634 2.37297 10.4634 2.73171H14.4878C14.7013 2.73171 14.906 2.81394 15.0569 2.96031C15.2079 3.10668 15.2927 3.3052 15.2927 3.5122ZM9.45732 6.04878C9.31144 6.04879 9.17051 6.10001 9.06057 6.19299C8.95063 6.28596 8.87913 6.4144 8.85929 6.55454L8.85366 6.63415V12.0976L8.85929 12.1772C8.87917 12.3173 8.95069 12.4457 9.06062 12.5386C9.17056 12.6315 9.31147 12.6827 9.45732 12.6827C9.60316 12.6827 9.74408 12.6315 9.85401 12.5386C9.96394 12.4457 10.0355 12.3173 10.0553 12.1772L10.061 12.0976V6.63415L10.0553 6.55454C10.0355 6.4144 9.964 6.28596 9.85407 6.19299C9.74413 6.10001 9.60319 6.04879 9.45732 6.04878ZM5.83537 6.04878C5.68949 6.04879 5.54855 6.10001 5.43862 6.19299C5.32868 6.28596 5.25718 6.4144 5.23734 6.55454L5.23171 6.63415V12.0976L5.23734 12.1772C5.25722 12.3173 5.32874 12.4457 5.43867 12.5386C5.5486 12.6315 5.68952 12.6827 5.83537 12.6827C5.98121 12.6827 6.12213 12.6315 6.23206 12.5386C6.34199 12.4457 6.41351 12.3173 6.43339 12.1772L6.43902 12.0976V6.63415L6.43339 6.55454C6.41355 6.4144 6.34205 6.28596 6.23211 6.19299C6.12218 6.10001 5.98124 6.04879 5.83537 6.04878ZM7.64634 1.56098C7.32614 1.56098 7.01906 1.68432 6.79264 1.90388C6.56622 2.12343 6.43902 2.42121 6.43902 2.73171H8.85366C8.85366 2.42121 8.72646 2.12343 8.50004 1.90388C8.27363 1.68432 7.96654 1.56098 7.64634 1.56098Z" fill="#4F4F4F"/>
</svg>
