<svg width="14" height="16" viewBox="0 0 14 16" fill="none" xmlns="http://www.w3.org/2000/svg">
<path d="M3.99994 5.37939L4.5689 5.94835L5.51718 5.00008" stroke="black" stroke-width="0.4" stroke-linecap="round" stroke-linejoin="round"/>
<path d="M3.99994 7.65524L4.5689 8.2242L5.51718 7.27592" stroke="black" stroke-width="0.4" stroke-linecap="round" stroke-linejoin="round"/>
<path d="M3.99994 9.93111L4.5689 10.5001L5.51718 9.5518" stroke="black" stroke-width="0.4" stroke-linecap="round" stroke-linejoin="round"/>
<path d="M6.84479 5.56905H10.2586" stroke="black" stroke-width="0.4" stroke-linecap="round" stroke-linejoin="round"/>
<path d="M6.84479 7.84489H10.2586" stroke="black" stroke-width="0.4" stroke-linecap="round" stroke-linejoin="round"/>
<path d="M6.84479 10.1207H10.2586" stroke="black" stroke-width="0.4" stroke-linecap="round" stroke-linejoin="round"/>
<path d="M3.99994 12.3794L4.5689 12.9484L5.51718 12.0001" stroke="black" stroke-width="0.4" stroke-linecap="round" stroke-linejoin="round"/>
<path d="M6.84467 12.5689H10.2585" stroke="black" stroke-width="0.4" stroke-linecap="round" stroke-linejoin="round"/>
<path d="M2.91661 6.10352e-05C2.7619 6.10352e-05 2.61352 0.0527395 2.50413 0.146508C2.39473 0.240276 2.33327 0.367453 2.33327 0.500061V1.00006H1.74994C1.28581 1.00006 0.840691 1.1581 0.512502 1.4394C0.184313 1.72071 -6.10352e-05 2.10224 -6.10352e-05 2.50006V14.5001C-6.10352e-05 14.8979 0.184313 15.2794 0.512502 15.5607C0.840691 15.842 1.28581 16.0001 1.74994 16.0001H8.74994C8.8266 16.0002 11.6666 16.0001 11.6666 16.0001L13.9999 15.9623V11.5556V2.50006C13.9999 2.10224 13.8156 1.72071 13.4874 1.4394C13.1592 1.1581 12.7141 1.00006 12.2499 1.00006H11.6666V0.500061C11.6666 0.367453 11.6051 0.240276 11.4958 0.146508C11.3864 0.0527395 11.238 6.10352e-05 11.0833 6.10352e-05C10.9286 6.10352e-05 10.7802 0.0527395 10.6708 0.146508C10.5614 0.240276 10.4999 0.367453 10.4999 0.500061V1.00006H7.58327V0.500061C7.58327 0.367453 7.52181 0.240276 7.41242 0.146508C7.30302 0.0527395 7.15465 6.10352e-05 6.99994 6.10352e-05C6.84523 6.10352e-05 6.69686 0.0527395 6.58746 0.146508C6.47806 0.240276 6.41661 0.367453 6.41661 0.500061V1.00006H3.49994V0.500061C3.49994 0.367453 3.43848 0.240276 3.32908 0.146508C3.21969 0.0527395 3.07132 6.10352e-05 2.91661 6.10352e-05ZM12.4452 2.00006C12.862 2.00006 12.923 2.04537 12.923 2.39731V14.9745L8.29624 15.0001H1.74994C1.59523 15.0001 1.44686 14.9474 1.33746 14.8536C1.22806 14.7598 1.16661 14.6327 1.16661 14.5001V2.50006C1.16661 2.36745 1.22806 2.24028 1.33746 2.14651C1.44686 2.05274 1.59523 2.00006 1.74994 2.00006H12.4452Z" fill="#333333"/>
<path d="M2.91661 6.10352e-05C2.7619 6.10352e-05 2.61352 0.0527395 2.50413 0.146508C2.39473 0.240276 2.33327 0.367453 2.33327 0.500061V1.00006H1.74994C1.28581 1.00006 0.840691 1.1581 0.512502 1.4394C0.184313 1.72071 -6.10352e-05 2.10224 -6.10352e-05 2.50006V14.5001C-6.10352e-05 14.8979 0.184313 15.2794 0.512502 15.5607C0.840691 15.842 1.28581 16.0001 1.74994 16.0001H8.74994C8.8266 16.0002 11.6666 16.0001 11.6666 16.0001L13.9999 15.9623V11.5556V2.50006C13.9999 2.10224 13.8156 1.72071 13.4874 1.4394C13.1592 1.1581 12.7141 1.00006 12.2499 1.00006H11.6666V0.500061C11.6666 0.367453 11.6051 0.240276 11.4958 0.146508C11.3864 0.0527395 11.238 6.10352e-05 11.0833 6.10352e-05C10.9286 6.10352e-05 10.7802 0.0527395 10.6708 0.146508C10.5614 0.240276 10.4999 0.367453 10.4999 0.500061V1.00006H7.58327V0.500061C7.58327 0.367453 7.52181 0.240276 7.41242 0.146508C7.30302 0.0527395 7.15465 6.10352e-05 6.99994 6.10352e-05C6.84523 6.10352e-05 6.69686 0.0527395 6.58746 0.146508C6.47806 0.240276 6.41661 0.367453 6.41661 0.500061V1.00006H3.49994V0.500061C3.49994 0.367453 3.43848 0.240276 3.32908 0.146508C3.21969 0.0527395 3.07132 6.10352e-05 2.91661 6.10352e-05ZM12.4452 2.00006C12.862 2.00006 12.923 2.04537 12.923 2.39731V14.9745L8.29624 15.0001H1.74994C1.59523 15.0001 1.44686 14.9474 1.33746 14.8536C1.22806 14.7598 1.16661 14.6327 1.16661 14.5001V2.50006C1.16661 2.36745 1.22806 2.24028 1.33746 2.14651C1.44686 2.05274 1.59523 2.00006 1.74994 2.00006H12.4452Z" stroke="#333333"/>
</svg>
